<svg version="1.1" xmlns="http://www.w3.org/2000/svg" viewBox="0 0 340.157 340.157">

<g class="logo_rotor"> 
<animateTransform 
	attributeName="transform" 
	type="rotate" 
	from="0 170.785 170.785" 
	to="360 170.785 170.785"
	dur="4s"
	repeatCount="indefinite" />

<path id="Rotor" d="M323.491,198.578c-6.233-7.565-12.773-14.205-19.987-20.048c0.135-2.485,0.224-4.985,0.224-7.505
	c0-13.315-1.984-26.163-5.631-38.29l11.567-1.906c5.348,10.52,10.079,21.937,12.671,34.023c0.439-17.74-2.063-35.934-8.081-53.158
	c-9.539-2.912-18.528-5.104-27.784-6.107c-7.65-13.48-17.583-25.483-29.288-35.494l8.692-7.851
	c10.409,5.743,20.091,13.144,29.138,21.67c-9.224-15.228-21.269-28.994-35.599-40.23c-9.501,2.566-18.34,5.777-26.619,9.834
	c-13.425-7.084-28.208-11.925-43.858-14.047l3.037-11.27c11.899-0.993,24.004,0.277,36.283,2.416
	c-15.98-7.95-33.703-12.715-51.763-14.47c-6.604,6.845-12.295,15.007-17.097,22.607c-15.767,1.356-30.743,5.461-44.452,11.844
	l-3.546-11.161c9.567-7.041,20.304-12.908,31.862-17.483c-17.683,2.15-35.194,7.459-51.403,15.75
	c-1.761,9.505-2.347,19.089-2.128,28.269c-12.198,9.443-22.701,20.958-30.99,34.024l-9.032-7.505
	c4.35-11.01,10.06-21.852,17.371-31.865c-13.699,11.343-25.556,25.226-34.749,40.951c3.681,8.966,8.264,17.282,13.475,24.91
	c-4.957,13.924-7.679,28.911-7.679,44.54c0,0.303,0.02,0.6,0.021,0.904l-11.71-1.426c-2.033-11.585-3.413-23.818-2.563-36.204
	c-5.388,16.99-7.829,35.045-7.183,53.232c8.447,5.482,16.256,10.155,24.935,13.728c3.562,15.288,9.752,29.557,18.088,42.311
	l-10.548,5.097c-8.311-8.472-15.669-18.244-21.85-29.035c4.568,17.221,12.23,33.881,22.843,48.671
	c9.894,0.158,19.227-0.355,28.352-1.955c11.021,10.687,23.884,19.47,38.074,25.844l-6.123,9.97
	c-11.654-2.512-22.965-7.02-34.076-12.607c13.1,12.06,28.589,21.854,45.532,28.588c8.351-4.997,15.982-10.812,22.743-16.926
	c8.493,1.702,17.273,2.609,26.267,2.609c6.723,0,13.329-0.511,19.781-1.476l0.239,11.654c-11.167,4.158-23.071,6.441-35.449,7.938
	c17.563,2.796,35.781,2.639,53.701-0.717c4.402-8.562,7.649-17.697,10.051-26.507c14.517-5.677,27.787-13.826,39.295-23.942
	l6.56,9.727c-7.233,9.381-15.786,18.146-25.617,25.729c16.354-7.049,31.619-17.065,44.843-29.556
	c-1.002-9.624-3.089-18.961-5.896-27.728c8.975-12.355,15.854-26.315,20.159-41.373l10.808,4.649
	c-1.146,11.77-3.487,23.834-7.729,35.49C311.645,232.973,319.106,216.265,323.491,198.578z"/>
</g>

<g class="logo_skull"> 

<animateTransform 
	attributeName="transform" 
	type="rotate" 
	values="0 170.785 170.785; 10 170.785 170.785; 0 170.785 170.785; -10 170.785 170.785; 0 170.785 170.785"
	dur="5s" fill="freeze"
	repeatCount="indefinite" />

<path id="Krest" d="M251.992,163.643l-43.878,22.015l-2.035,2.464l-10.282,5.16l0.146,0.729l-0.242,0.293
	c-0.716,0.867-1.756,0.93-1.871,0.933l-0.51,0.021l-0.558-1.106l-0.277,0.135c1.128,3.002,1.051,5.218,1.047,5.314l-0.019,0.471
	l-7.071,3.549l14.582,7.316l2.999-5.978l2.526,1.265l-4.772,9.515l20.04,10.058l1.854-3.696l2.685,1.351l-7.224,14.396l-2.688-1.341
	l1.896-3.781l-20.043-10.054l-4.891,9.754l-2.527-1.271l3.118-6.211l-25.024-12.559l-25.023,12.559l3.12,6.211l-2.53,1.267
	l-4.892-9.75l-20.041,10.054l1.896,3.781l-2.686,1.341l-7.226-14.396l2.685-1.351l1.854,3.696l20.041-10.058l-4.773-9.515
	l2.523-1.265l2.998,5.978l14.583-7.316l-7.069-3.549l-0.02-0.471c-0.004-0.097-0.079-2.313,1.048-5.314l-0.279-0.135l-0.554,1.106
	l-0.511-0.021c-0.117-0.003-1.155-0.065-1.873-0.933l-0.245-0.293l0.152-0.729l-10.284-5.16l-2.035-2.464l-43.876-22.015
	l-8.294-7.13l53.513,26.85l3.03,0.077l10.312,5.174l0.431-0.481l0.375,0.019c0.915,0.034,1.667,0.763,1.811,0.907l0.395,0.41
	l-0.422,0.842l0.312,0.157c0.983-1.475,2.186-2.844,3.577-4.077l0.403-0.359l17.574,8.819l17.575-8.819l0.404,0.359
	c1.391,1.231,2.588,2.599,3.574,4.077l0.313-0.157l-0.426-0.842l0.4-0.41c0.141-0.145,0.893-0.873,1.809-0.907l0.376-0.019
	l0.431,0.481l10.311-5.174l3.031-0.077l53.515-26.85L251.992,163.643z"/>
<path id="HeadDn" d="M180.421,246.742c-0.749,1.288-6.127,1.983-11.449,2.086v0.008
	c-0.042,0-0.086-0.004-0.129-0.004c-0.041,0-0.084,0.004-0.128,0.004v-0.008c-5.323-0.103-10.701-0.798-11.45-2.086l-3.517-4.573
	l3.452-3.773l2.919-12.522l-0.355,9.927l3.381,2.596l2.81-7.923l0.793,8.818l1.966-0.021v-0.001h0.128h0.129v0.001l1.967,0.021
	l0.792-8.818l2.811,7.923l3.378-2.596l-0.353-9.927l2.917,12.522l3.452,3.773L180.421,246.742z"/>
<path id="HeadUp" d="M194.537,100.78c-6.325-5.395-21.728-9.165-25.565-9.681v-0.048
	c-0.045,0.008-0.113,0.019-0.162,0.024c-0.049-0.006-0.12-0.017-0.163-0.024V91.1c-3.836,0.516-19.241,4.286-25.564,9.681
	c-6.5,5.542-9.751,12.789-9.751,21.743c0,7.681,1.079,13.259,3.244,16.732c2.794,4.674,4.296,7.813,4.505,9.414l1.362,5.604
	l5.392,9.685l1.408-3.759l4.135,1.245l1.883,4.835l4.222,9.618l-0.051-7.353l2.992,1.056l3.748,16.974l0.651-16.62l1.824,0.143
	v0.025l0.163-0.015l0.162,0.015v-0.025l1.822-0.143l0.656,16.62l3.745-16.974l2.99-1.056l-0.049,7.353l4.221-9.618l1.884-4.835
	l4.134-1.245l1.408,3.759l5.391-9.685l1.365-5.604c0.206-1.6,1.707-4.74,4.503-9.414c2.167-3.474,3.243-9.052,3.243-16.732
	C204.285,113.569,201.035,106.322,194.537,100.78z M161.425,150.92c-0.518,3.446-2.737,3.732-5.16,3.732l-1.592-0.009
	c-3.646,0-9.598-4.871-9.598-8.717v-1.103l16.451,5.431L161.425,150.92z M192.542,145.926c0,3.846-5.951,8.717-9.599,8.717
	l-1.591,0.009c-2.426,0-4.644-0.286-5.158-3.732l-0.097-0.666l16.444-5.431V145.926z"/>
</g>

</svg>
